<svg aria-hidden="true" style="position:absolute;width:0;height:0" xmlns="http://www.w3.org/2000/svg" overflow="hidden"><defs><symbol id="icon-znak-dom" viewBox="0 0 35 32">
<path fill="var(--color1, #d31342)" d="M34.253 15.613a1.571 1.571 0 00-.129-2.254l-.002-.002L19.349.432A1.828 1.828 0 0018.165 0c-.467 0-.893.174-1.217.46l.002-.002L2.129 14.047a1.564 1.564 0 00-.071 2.251l.373.387c.613.64 1.611.72 2.224.171l1.107-.992v14.523c0 .893.72 1.613 1.613 1.613h5.773c.891 0 1.613-.72 1.613-1.613v-10.16h7.373v10.16c-.013.891.624 1.613 1.515 1.613h6.123a1.61 1.61 0 001.611-1.613v-14.32l.685.603c.376.331 1.168.064 1.765-.595l.421-.461z"/></symbol>
<symbol id="icon-ellipse" viewBox="0 0 32 32"><path fill="var(--color2, #d9d9d9)" d="M32 16c0 8.837-7.163 16-16 16S0 24.837 0 16 7.163 0 16 0s16 7.163 16 16z"/></symbol></defs></svg>